<?xml version="1.0" standalone="no"?>
<!DOCTYPE svg PUBLIC "-//W3C//DTD SVG 20010904//EN"
 "http://www.w3.org/TR/2001/REC-SVG-20010904/DTD/svg10.dtd">
<svg version="1.0" xmlns="http://www.w3.org/2000/svg"
 width="640.000000pt" height="640.000000pt" viewBox="0 0 640.000000 640.000000"
 preserveAspectRatio="xMidYMid meet">

<g transform="translate(0.000000,640.000000) scale(0.100000,-0.100000)"
fill="#000000" stroke="none">
<path d="M0 3200 l0 -3200 3200 0 3200 0 0 3200 0 3200 -3200 0 -3200 0 0
-3200z m3102 1876 c7 -13 9 -74 5 -183 -4 -90 -4 -163 -1 -163 3 0 25 14 50
31 74 50 111 62 204 62 71 0 96 -4 140 -25 77 -35 115 -70 147 -136 28 -57 28
-57 33 -317 3 -143 9 -268 14 -277 6 -14 20 -17 72 -15 71 2 84 -6 84 -55 0
-53 -9 -55 -246 -54 -199 2 -218 4 -230 21 -19 26 -17 52 6 75 17 17 28 19 79
14 86 -9 86 -11 86 276 0 226 -1 237 -23 283 -34 68 -87 97 -178 97 -124 -1
-202 -59 -222 -168 -15 -79 -24 -398 -13 -446 10 -41 27 -59 49 -51 39 14 88
15 106 2 22 -16 26 -71 7 -90 -9 -9 -74 -12 -232 -13 -241 -1 -249 1 -249 56
0 49 23 62 96 55 l63 -7 8 28 c4 16 8 218 8 449 0 324 -3 425 -13 443 -11 19
-21 22 -81 22 -73 0 -81 5 -81 55 0 44 29 53 171 51 118 -1 131 -3 141 -20z
m-420 5 c42 -2 45 -19 44 -246 -1 -202 -3 -218 -21 -231 -27 -20 -62 -17 -85
6 -18 18 -20 34 -20 163 -1 125 -3 145 -20 165 -40 48 -198 55 -240 10 -30
-33 -35 -90 -35 -475 0 -352 1 -362 21 -390 19 -26 28 -28 100 -33 70 -4 80
-8 90 -28 6 -13 9 -33 6 -44 -9 -37 -44 -43 -169 -30 -87 8 -148 8 -249 0
-107 -9 -136 -9 -148 1 -19 16 -21 74 -3 89 7 6 46 12 86 14 68 3 76 5 95 31
21 28 21 38 21 425 0 370 -1 399 -19 424 -23 35 -83 52 -154 45 -103 -11 -130
-57 -114 -194 15 -134 -5 -193 -69 -193 -50 0 -54 16 -55 234 0 228 2 245 27
254 13 5 762 7 911 3z m1707 -261 c81 -14 132 -40 191 -99 54 -54 77 -94 96
-166 18 -65 18 -181 2 -192 -7 -4 -148 -10 -313 -13 l-300 -5 1 -55 c3 -142
113 -253 254 -253 108 -1 187 55 220 155 21 65 53 89 94 70 79 -36 37 -176
-79 -264 -74 -56 -165 -81 -272 -76 -232 12 -363 167 -363 432 0 170 41 277
139 370 57 52 119 84 190 96 66 11 69 11 140 0z m-1659 -1421 c28 -12 60 -35
71 -50 65 -92 3 -198 -93 -158 -35 14 -50 47 -42 88 6 28 4 30 -30 37 -112 20
-189 -45 -190 -161 l-1 -50 93 -5 c101 -5 112 -12 112 -65 0 -53 -11 -60 -112
-65 l-93 -5 -3 -283 c-1 -186 1 -290 8 -303 10 -17 20 -19 75 -18 40 1 70 -3
80 -11 17 -14 20 -52 5 -79 -9 -17 -27 -18 -236 -17 -224 1 -227 1 -242 24
-12 18 -13 28 -4 48 15 32 50 45 97 34 47 -11 63 -4 73 29 4 14 7 150 7 301
l0 275 -66 5 c-77 6 -99 20 -99 64 0 52 11 59 97 65 l78 6 6 75 c8 105 40 163
120 214 64 40 202 43 289 5z m596 18 c89 -19 152 -59 176 -114 37 -84 7 -143
-73 -143 -40 0 -51 4 -69 27 -17 22 -20 36 -16 65 6 36 5 38 -31 54 -54 22
-172 16 -209 -12 -48 -35 -65 -68 -71 -132 -6 -60 -5 -61 22 -68 15 -4 121 -5
236 -2 162 4 211 2 219 -7 7 -9 11 -128 10 -352 -1 -402 -4 -387 94 -377 60 6
62 6 74 -21 10 -21 10 -32 0 -53 l-13 -27 -220 -1 c-127 0 -225 3 -232 9 -18
13 -16 48 3 76 15 21 22 23 70 17 50 -6 55 -4 71 21 16 24 18 54 18 278 -1
264 -4 298 -32 310 -25 11 -245 19 -287 11 l-36 -7 0 -299 c0 -339 -4 -323 81
-313 34 4 50 1 62 -12 20 -19 23 -70 5 -82 -7 -4 -111 -8 -231 -9 -238 0 -237
-1 -237 59 0 43 31 60 93 52 51 -7 56 -5 68 16 19 36 36 563 19 584 -9 10 -31
15 -74 15 -70 0 -86 10 -86 56 0 44 15 53 95 56 l70 3 13 80 c24 147 89 217
227 245 60 12 123 11 191 -3z m-1625 -17 c185 -57 299 -216 330 -460 12 -99 5
-201 -22 -319 -66 -284 -269 -434 -540 -400 -175 22 -313 140 -376 321 -35
100 -50 264 -35 388 30 251 141 410 330 471 81 26 229 25 313 -1z m2623 -300
c130 -65 192 -206 138 -310 -48 -90 -183 -86 -206 6 -9 36 19 84 54 90 26 6
28 8 19 33 -25 65 -78 94 -171 93 -54 0 -77 -5 -111 -26 -110 -64 -163 -216
-137 -394 24 -172 132 -268 277 -248 88 12 139 65 178 184 23 72 72 95 115 52
29 -29 25 -84 -9 -155 -36 -75 -98 -136 -176 -172 -79 -36 -200 -38 -287 -4
-188 73 -284 299 -232 548 33 161 118 265 257 315 77 27 224 21 291 -12z m868
-3 c122 -60 193 -170 205 -314 10 -132 35 -122 -320 -125 l-302 -3 -3 -38 c-8
-91 57 -205 142 -250 53 -28 174 -31 222 -5 50 27 87 73 114 140 24 61 26 63
65 66 48 4 65 -15 65 -72 0 -55 -33 -118 -88 -167 -119 -104 -278 -134 -425
-79 -264 99 -330 528 -118 763 77 86 161 118 297 114 74 -2 100 -7 146 -30z
m-682 -1442 c3 -78 9 -129 15 -127 5 2 11 -1 13 -7 2 -7 -17 -11 -52 -11 -55
0 -75 13 -36 23 18 5 20 14 20 112 0 98 -2 107 -20 112 -39 10 -19 35 25 31
l30 -3 5 -130z m-915 43 c47 -41 46 -129 -2 -174 -37 -34 -86 -32 -124 5 -25
25 -29 37 -29 84 0 45 4 59 26 81 35 34 92 36 129 4z m245 2 c16 -16 20 -33
20 -85 0 -54 3 -66 20 -75 35 -19 22 -30 -35 -30 -55 0 -73 13 -34 25 19 6 21
13 17 72 -4 65 -15 83 -50 83 -32 0 -48 -29 -48 -90 0 -42 4 -59 15 -64 33
-12 12 -26 -40 -26 -54 0 -74 13 -35 23 18 5 20 14 20 75 0 62 -2 71 -20 77
-36 11 -21 26 25 24 24 -2 48 0 51 4 15 15 75 6 94 -13z m340 -20 c0 -29 -4
-40 -15 -40 -8 0 -15 7 -15 15 0 19 -43 40 -64 32 -19 -8 -21 -46 -3 -51 6 -2
31 -9 54 -15 45 -12 59 -35 49 -75 -8 -31 -49 -47 -111 -43 l-50 3 -3 42 c-2
31 1 42 11 42 8 0 18 -11 21 -25 11 -45 91 -45 91 0 0 14 -13 22 -50 31 -55
14 -78 37 -69 68 11 38 43 56 100 56 l54 0 0 -40z m202 10 c28 -29 30 -35 26
-87 -4 -46 -10 -61 -32 -80 -64 -55 -156 -8 -156 81 0 80 29 114 98 115 25 1
42 -7 64 -29z m328 10 c16 -16 20 -33 20 -91 0 -52 3 -70 13 -67 6 3 13 15 15
27 5 30 26 21 30 -13 2 -19 8 -26 20 -24 14 3 18 17 20 74 3 65 1 72 -18 77
-37 9 -22 28 23 28 23 -1 60 2 83 5 36 5 44 3 63 -21 16 -22 21 -41 21 -91 0
-54 3 -64 20 -69 38 -12 20 -25 -36 -25 -40 0 -54 3 -51 13 2 6 10 11 16 10
15 -4 15 129 -1 145 -7 7 -21 12 -33 12 -12 0 -26 -5 -33 -12 -16 -16 -16
-149 -1 -145 6 1 13 -3 16 -9 5 -14 -167 -25 -184 -12 -7 6 -19 5 -32 -1 -52
-28 -121 2 -121 52 0 32 26 53 80 64 39 7 45 12 45 33 0 21 -5 25 -30 25 -23
0 -31 -5 -33 -22 -5 -33 -42 -31 -42 1 0 51 90 76 130 36z m490 0 c16 -16 20
-33 20 -90 0 -38 4 -70 9 -70 5 0 11 10 13 22 5 37 28 34 28 -5 0 -47 -22 -64
-63 -49 -21 8 -35 8 -41 2 -15 -15 -69 -12 -94 6 -15 10 -22 25 -22 47 0 38
20 54 80 63 45 7 60 25 40 49 -19 23 -49 18 -60 -10 -11 -28 -35 -33 -44 -9
-8 22 -9 21 16 44 29 27 91 27 118 0z"/>
<path d="M4260 4701 c-48 -15 -87 -40 -124 -81 -41 -46 -56 -77 -56 -121 l0
-29 229 0 c148 0 232 4 236 10 13 21 -8 92 -39 133 -56 75 -163 113 -246 88z"/>
<path d="M1460 3286 c-95 -27 -147 -72 -194 -165 -43 -83 -58 -165 -59 -301 0
-236 71 -391 205 -451 80 -35 184 -33 260 4 97 48 164 148 195 290 19 91 13
297 -11 378 -35 118 -117 214 -204 239 -60 18 -143 20 -192 6z"/>
<path d="M4985 3010 c-57 -15 -84 -29 -126 -67 -46 -41 -69 -86 -69 -132 l0
-30 213 -3 c116 -2 223 0 236 5 21 6 22 11 16 44 -23 124 -156 214 -270 183z"/>
<path d="M3503 1682 c-19 -12 -35 -64 -28 -92 22 -87 115 -73 115 18 0 63 -44
101 -87 74z"/>
<path d="M4276 1674 c-10 -10 -16 -33 -16 -64 0 -39 4 -52 22 -64 30 -21 44
-20 68 4 14 14 20 33 20 64 0 50 -19 76 -55 76 -13 0 -31 -7 -39 -16z"/>
<path d="M4635 1591 c-34 -7 -41 -37 -13 -54 26 -17 68 7 68 38 0 26 -4 27
-55 16z"/>
<path d="M5120 1591 c-36 -10 -40 -48 -5 -57 30 -7 65 18 65 48 0 19 -16 21
-60 9z"/>
</g>
</svg>
